<?xml version="1.0" encoding="utf-8"?>
<!-- Generator: Adobe Illustrator 16.0.0, SVG Export Plug-In . SVG Version: 6.00 Build 0)  -->
<!DOCTYPE svg PUBLIC "-//W3C//DTD SVG 1.1//EN" "http://www.w3.org/Graphics/SVG/1.1/DTD/svg11.dtd">
<svg version="1.1" id="Layer_1" xmlns="http://www.w3.org/2000/svg" xmlns:xlink="http://www.w3.org/1999/xlink" x="0px" y="0px"
	 width="97px" height="94px" viewBox="-5 -3.5 97 94" enable-background="new -5 -3.5 97 94" xml:space="preserve">
<g>
	<g>
		<path fill="#F26522" d="M71.251,41.88c-2.686-9.055-5.659-15.458-6.61-17.405l-0.411-0.818l-1.233-1.001
			c-3.688-2.677-9.076-3.92-10.952-4.291l-2.155-4.261H37.113l-2.155,4.261c-1.875,0.369-7.265,1.614-10.953,4.291l-1.234,1.003
			l-0.408,0.813c-0.95,1.945-3.926,8.349-6.613,17.408c-2.593,8.747-2.24,14.679-2.226,14.851v9.84h1.716v6.326h8.235V66.57h1.66
			V53.848c0-2.451,0.698-4.549,1.696-6.432V66.57h2.471v6.326H57.7V66.57h2.47V47.416c0.999,1.883,1.696,3.98,1.696,6.432V66.57
			h1.66v6.326h8.236V66.57h1.716l-0.003-9.764C73.492,56.559,73.846,50.627,71.251,41.88z M48.995,17.622l0.564,1.118l0.129,0.255
			c-0.031,0.019-0.062,0.045-0.094,0.064c-0.312,0.191-0.628,0.358-0.946,0.505c-0.009,0.003-0.018,0.009-0.025,0.013
			c-0.065,0.03-0.13,0.053-0.195,0.082c-0.301,0.129-0.602,0.244-0.898,0.339c-0.025,0.009-0.053,0.017-0.078,0.026L48.995,17.622z
			 M46.969,16.46l-2.543,4.118c-0.015,0-0.031,0.002-0.046,0.003c-0.05,0.002-0.111,0.008-0.156,0.009
			c-0.171,0.007-0.32,0.011-0.43,0.011l-0.354-0.005l-0.232,0.005c-0.11,0-0.258-0.004-0.427-0.011c-0.01,0-0.022-0.001-0.032-0.001
			l-2.656-4.128H46.969z M38.007,17.622l1.544,2.402c-0.026-0.008-0.051-0.017-0.078-0.026c-0.296-0.095-0.599-0.21-0.901-0.339
			c-0.063-0.029-0.127-0.052-0.19-0.081c-0.014-0.006-0.027-0.014-0.041-0.021c-0.313-0.144-0.625-0.31-0.931-0.497
			c-0.033-0.02-0.063-0.044-0.096-0.065L38.007,17.622z M21.08,70.539h-3.448v-0.805h3.448V70.539z M21.08,67.377h-3.448V66.57
			h3.448V67.377z M26.83,42.979c-1.466,1.999-4.089,5.815-4.089,10.868v10.367h-6.825l-0.001-7.559
			c-0.003-0.057-0.333-5.801,2.132-14.116c2.118-7.141,4.468-12.695,5.764-15.537c0.033,0.068,0.066,0.139,0.099,0.211
			c0.07,0.151,0.144,0.315,0.218,0.481c0.062,0.141,0.124,0.28,0.187,0.431c0.119,0.279,0.24,0.576,0.362,0.894
			c0.039,0.099,0.077,0.209,0.116,0.312c0.273,0.755,0.551,1.584,0.824,2.462c0.03,0.101,0.06,0.201,0.089,0.305
			c0.225,0.788,0.43,1.597,0.612,2.421c0.013,0.06,0.025,0.125,0.038,0.184c0.181,0.843,0.342,1.697,0.475,2.564V42.979z
			 M29.224,64.215V37.18l-0.013-0.173c-0.144-0.948-0.312-1.83-0.493-2.678c-0.043-0.207-0.093-0.411-0.141-0.617
			c-0.167-0.733-0.341-1.427-0.524-2.082c-0.029-0.1-0.049-0.207-0.078-0.307c-0.021-0.072-0.044-0.138-0.068-0.21
			c-0.294-1-0.597-1.891-0.9-2.689c-0.012-0.032-0.023-0.068-0.035-0.1c-0.022-0.059-0.044-0.109-0.067-0.165
			c-0.543-1.398-1.055-2.466-1.45-3.204c-0.007-0.013-0.014-0.027-0.021-0.04c-0.047-0.088-0.103-0.198-0.146-0.276
			c3.299-2.471,8.591-3.662,10.231-3.984c0.346,0.248,0.701,0.462,1.06,0.66c0.026,0.014,0.05,0.033,0.076,0.047
			c0.042,0.023,0.085,0.039,0.128,0.061c0.334,0.176,0.669,0.333,1.004,0.471c0.011,0.005,0.022,0.012,0.033,0.016
			c0.007,0.002,0.013,0.005,0.02,0.006c0.757,0.308,1.505,0.526,2.213,0.68c0.006,0.002,0.013,0.004,0.019,0.004
			c0.008,0.002,0.016,0.004,0.025,0.006c0.107,0.022,0.214,0.048,0.318,0.068v41.539H29.224z M55.307,67.377h-6.612v2.357h6.612
			v0.805H31.694v-0.805h6.613v-2.357h-6.613V66.57h23.612V67.377z M60.09,28.174c-0.022,0.057-0.044,0.106-0.064,0.165
			c-0.013,0.031-0.024,0.068-0.036,0.099c-0.302,0.799-0.605,1.691-0.899,2.689c-0.022,0.075-0.046,0.142-0.068,0.217
			c-0.03,0.099-0.051,0.208-0.078,0.309c-0.182,0.646-0.354,1.33-0.52,2.054c-0.046,0.211-0.098,0.417-0.143,0.628
			c-0.179,0.847-0.348,1.728-0.491,2.673l-0.014,6.739l0.01,0.011l-0.01,20.458H42.809V22.946c0.147,0.004,0.294,0.01,0.397,0.01
			c0.164,0,0.273-0.004,0.261-0.006c0.048,0,0.158,0.006,0.326,0.006c0.136,0,0.313-0.003,0.522-0.012
			c0.058-0.002,0.136-0.01,0.197-0.014c0.166-0.009,0.329-0.017,0.526-0.036c0.005,0,0.01-0.001,0.014-0.001
			c0.265-0.024,0.547-0.059,0.84-0.102c0.013-0.002,0.021-0.002,0.036-0.005c0.016-0.002,0.034-0.006,0.05-0.007
			c0.296-0.045,0.604-0.103,0.922-0.171c0.014-0.002,0.027-0.004,0.041-0.008c0.008-0.002,0.019-0.005,0.025-0.006
			c0.706-0.155,1.449-0.372,2.202-0.678c0.01-0.003,0.017-0.009,0.026-0.012c0.002,0,0.003-0.001,0.003-0.001
			c0.02-0.008,0.038-0.017,0.059-0.025c0.319-0.134,0.639-0.286,0.958-0.453c0.051-0.026,0.1-0.046,0.149-0.074
			c0.035-0.019,0.07-0.042,0.106-0.062c0.31-0.174,0.619-0.365,0.921-0.577c0.03-0.021,0.061-0.035,0.091-0.056
			c1.638,0.322,6.927,1.508,10.231,3.984c-0.046,0.083-0.104,0.197-0.154,0.291c-0.002,0.002-0.004,0.006-0.007,0.011
			C61.155,25.681,60.639,26.761,60.09,28.174z M69.369,70.539H65.92v-0.805h3.449V70.539z M69.369,67.377H65.92V66.57h3.449V67.377z
			 M71.085,56.73v7.484H64.26V53.848c0-5.053-2.622-8.869-4.09-10.868v-5.712c0.133-0.866,0.294-1.718,0.474-2.555
			c0.015-0.062,0.026-0.129,0.039-0.19c0.18-0.819,0.383-1.616,0.604-2.393c0.03-0.101,0.058-0.199,0.088-0.298
			c0.277-0.899,0.557-1.736,0.828-2.485c0.04-0.104,0.078-0.215,0.118-0.316c0.124-0.325,0.25-0.629,0.37-0.916
			c0.059-0.135,0.113-0.26,0.17-0.388c0.08-0.184,0.161-0.362,0.237-0.528c0.031-0.066,0.062-0.132,0.091-0.195
			c1.297,2.842,3.647,8.396,5.766,15.537C71.42,50.855,71.09,56.6,71.085,56.73z M47.927,55.793l6.47,6.199l1.627-1.699l-6.47-6.197
			L47.927,55.793z M30.977,60.293l1.627,1.699l6.471-6.199l-1.627-1.697L30.977,60.293z M44.655,34.527
			c-0.692,0-1.25,0.561-1.25,1.25c0,0.688,0.559,1.249,1.25,1.249c0.689,0,1.25-0.56,1.25-1.249
			C45.905,35.087,45.345,34.527,44.655,34.527z M44.655,43.506c-0.692,0-1.25,0.56-1.25,1.25s0.559,1.25,1.25,1.25
			c0.689,0,1.25-0.561,1.25-1.25S45.345,43.506,44.655,43.506z M44.655,52.486c-0.692,0-1.25,0.561-1.25,1.25
			c0,0.688,0.559,1.248,1.25,1.248c0.689,0,1.25-0.561,1.25-1.248C45.905,53.047,45.345,52.486,44.655,52.486z M44.655,61.467
			c-0.692,0-1.25,0.561-1.25,1.25s0.559,1.25,1.25,1.25c0.689,0,1.25-0.561,1.25-1.25S45.345,61.467,44.655,61.467z M44.655,69.885
			c0.689,0,1.25-0.561,1.25-1.25s-0.561-1.25-1.25-1.25c-0.692,0-1.25,0.561-1.25,1.25S43.963,69.885,44.655,69.885z M44.655,25.546
			c-0.692,0-1.25,0.561-1.25,1.25c0,0.688,0.559,1.25,1.25,1.25c0.689,0,1.25-0.562,1.25-1.25
			C45.905,26.107,45.345,25.546,44.655,25.546z"/>
	</g>
</g>
</svg>
