<?xml version="1.0" encoding="utf-8"?>
<!-- Generator: Adobe Illustrator 16.0.0, SVG Export Plug-In . SVG Version: 6.00 Build 0)  -->
<!DOCTYPE svg PUBLIC "-//W3C//DTD SVG 1.1//EN" "http://www.w3.org/Graphics/SVG/1.1/DTD/svg11.dtd">
<svg version="1.1" id="Layer_1" xmlns="http://www.w3.org/2000/svg" xmlns:xlink="http://www.w3.org/1999/xlink" x="0px" y="0px"
	 width="97px" height="94px" viewBox="-5 -3.5 97 94" enable-background="new -5 -3.5 97 94" xml:space="preserve">
<path fill="#F26522" d="M73.01,12.578L60.897,18.76c-5.012-3.778-11.228-6.042-17.972-6.042c-16.497,0-29.917,13.407-29.917,29.886
	c0,4.848,1.167,9.425,3.226,13.476c0.381,0.81,0.816,1.626,1.307,2.406c0.372,0.59,0.837,1.23,1.321,1.852
	c0.686,0.927,1.426,1.81,2.214,2.652c0.379,0.428,0.65,0.721,0.686,0.758l0.418,0.449l0.084-0.009
	c5.375,5.136,12.654,8.302,20.662,8.302c16.496,0,29.917-13.407,29.917-29.886c0-5.091-1.291-9.884-3.546-14.083L73.01,12.578z
	 M65.982,32.203l-4.52-3.473l-0.706,1.091c-9.802,15.184-19.692,23.055-26.264,26.988c-5.675,3.394-9.913,4.512-11.417,4.829
	c-0.807-0.9-2.539-2.888-3.507-4.425c-1.207-1.913-2.045-4.118-2.578-5.81c1.611,0.696,3.392,1.052,5.328,1.052h0.001
	c11.578,0,26.838-12.617,37.597-23.199l0.98-0.962l-5.355-4.118l13.967-7.128L65.982,32.203z M54.084,43.965
	c-0.133,0.425-0.402,1.447,0.19,2.257c0.613,0.835,1.705,0.835,2.117,0.835c0.317,0,0.596-0.035,0.864-0.069
	c0.335-0.045,0.491-0.251,1.393,0.291c0.369,0.221,0.828,0.582,0.916,1.046c0.105,0.549-0.3,1.22-0.657,1.684
	c-0.747,0.975-1.156,1.854-1.519,2.624c-0.521,1.125,0.263,3.205-1.081,4.319c-1.537,1.277-3.592,1.05-4.352,1.901
	c-0.555,0.622-1.03,1.162-1.715,1.768c-0.367,0.328-0.754,0.652-1.142,0.979c-1.299,1.098-2.637,2.228-3.468,3.489
	c0.106-0.773,0.337-1.876,0.8-3.429c1.886-6.322,1.616-7.679-0.448-9.433c-0.203-0.172-0.365-0.344-0.515-0.523
	c2.595-2.29,5.305-4.997,8.075-8.201C53.774,43.677,53.988,43.848,54.084,43.965z M42.926,15.109c5.786,0,11.144,1.813,15.578,4.87
	l-7.42,3.786l6.172,4.746c-3.393,3.288-6.668,6.214-9.809,8.783c-0.365-0.261-0.793-0.46-1.335-0.46c-0.59,0-1.179,0.238-1.803,0.73
	c-0.437,0.344-0.739,0.75-0.965,1.188l-0.012-0.005c-0.244,0.593-0.465,0.787-0.514,0.808c-0.136,0-0.641-0.315-1.09-1.095
	c-0.874-1.532-3.14-2.501-5.26-3.262c0.044-0.334,0.056-0.657,0.066-0.918c0.02-0.677,0.044-1.446,0.282-2.17
	c0.225-0.688,0.734-1.606,2.534-1.606c0.47,0,0.982,0.066,1.524,0.194c0.792,0.189,1.19,0.28,1.55,0.28
	c1.226-0.002,1.487-1.034,1.571-1.375c0.063-0.25,0.144-0.561,0.421-1.019c0.267-0.437,0.441-0.782,0.59-1.07
	c0.354-0.702,0.393-0.775,2.171-1.467c1.929-0.749,2.801-1.705,2.588-2.834c-0.052-0.27-0.215-0.74-0.745-1.102
	c0.862-0.298,1.007-0.902,1.009-1.265c0.011-1.291-1.32-1.557-4.23-2.142l-0.414-0.082c-0.43-0.088-0.74-0.128-1.013-0.128
	c-1.147,0-1.557,0.746-1.776,1.147l-0.049,0.084c-0.091-0.059-0.189-0.122-0.276-0.178c-0.211-0.138-0.446-0.289-0.709-0.444
	c-0.327-0.191-0.42-0.347-0.425-0.377c0-0.042,0.086-0.271,0.507-0.594c0.526-0.403,0.931-0.48,1.197-0.497
	c0.812,0.013,1.792,0.399,2.167,0.546c0.417,0.161,0.599,0.224,0.843,0.224l1.03-0.002l0.157-1.011
	c0.168-1.086-0.854-1.409-1.838-1.721c-0.718-0.227-1.428-0.432-2.228-0.432l-0.181,0.004c-0.804,0-1.496,0.198-2.055,0.589
	c-0.598,0.418-0.93,0.474-1.202,0.474c-0.275,0-0.612-0.069-1.091-0.224c-0.379-0.122-0.786-0.183-1.213-0.183
	c-1.314,0-2.647,0.575-3.935,1.133l-0.267,0.114c-1.618,0.696-2.308,1.501-2.466,2.882c-0.026,0.25-0.033,0.432-0.04,0.591
	c-0.009,0.291-0.014,0.414-0.458,1.37c-0.269,0.575-0.534,1.061-0.77,1.495c-0.762,1.399-1.421,2.608-0.869,4.465
	c0.762,2.55,3.273,8.528,5.23,8.991c0.225,0.077,0.425,0.126,0.623,0.159c0.122,0.019,0.233,0.026,0.339,0.026
	c0.038,0,0.061-0.012,0.096-0.014c1.688,0.586,4.369,1.534,4.937,2.534c0.565,0.988,1.293,1.686,2.065,2.039
	c-7.7,5.473-14.337,8.377-19.395,8.377h-0.001c-2.5,0-4.585-0.667-6.373-2.036c-0.354-1.754-0.542-3.566-0.542-5.421
	C15.403,27.443,27.75,15.109,42.926,15.109z M45.939,23.962c-2.049,0.825-2.46,1.268-3.07,2.469
	c-0.122,0.243-0.271,0.538-0.498,0.909c-0.269,0.442-0.431,0.82-0.536,1.126c-0.138-0.032-0.279-0.066-0.409-0.096
	c-0.723-0.17-1.422-0.259-2.076-0.259c-2.415,0-4.122,1.156-4.809,3.253c-0.346,1.051-0.379,2.085-0.402,2.839
	c-0.003,0.119-0.007,0.253-0.014,0.383c-0.309-0.11-1.018-0.484-1.155-1.642c-0.004-0.044-0.47-3.817-1.958-4.986l0.165-2.922
	c0.066-0.127,0.139-0.264,0.219-0.411c0.257-0.472,0.545-1.002,0.837-1.628c0.592-1.27,0.66-1.656,0.683-2.295
	c0.002-0.11,0.007-0.239,0.026-0.408c0.04-0.356,0.061-0.536,1.033-0.952l0.271-0.117c1.361-0.59,2.688-1.118,3.462-0.868
	c0.383,0.123,0.72,0.212,1.033,0.265c-0.002,0.087,0,0.17,0.005,0.248c0.03,0.523,0.283,1.518,1.602,2.293
	c0.229,0.136,0.434,0.27,0.616,0.388c0.569,0.37,1.104,0.715,1.766,0.715c0.722,0,1.33-0.406,1.809-1.208l0.085-0.146
	c0.072,0.011,0.165,0.027,0.277,0.051l0.424,0.084c0.058,0.012,0.123,0.026,0.195,0.04c-0.521,0.444-0.872,0.988-0.816,1.604
	C44.754,23.209,45.112,23.797,45.939,23.962z M46.383,21.616c0.035,0.005,0.08,0.016,0.129,0.038l0.072,1.155L46.383,21.616z
	 M70.45,42.604c0,15.161-12.346,27.494-27.524,27.494c-6.752,0-12.922-2.465-17.715-6.512c3.453-0.963,10.264-3.567,18.443-10.33
	c0.242,0.284,0.519,0.57,0.857,0.859c0.889,0.754,1.335,1.133-0.371,6.861c-1.492,5.002-0.964,6.518-0.438,7.223
	c0.319,0.429,0.777,0.688,1.266,0.721c0.193,0.036,0.342,0.053,0.461,0.053c0.963,0,1.309-0.75,1.587-1.354
	c0.096-0.214,0.224-0.492,0.404-0.852c0.538-1.074,1.905-2.228,3.226-3.343c0.402-0.339,0.803-0.679,1.183-1.017
	c0.793-0.701,1.341-1.316,1.92-1.969c0.736-0.83,2.693-0.489,4.092-1.648c1.756-1.457,1.15-3.923,1.721-5.149
	c0.34-0.728,0.656-1.414,1.247-2.18c0.953-1.239,1.327-2.447,1.11-3.587c-0.202-1.056-0.905-1.971-2.034-2.647
	c-1.07-0.641-1.986-0.743-2.944-0.612c-0.176,0.022-0.358,0.047-0.566,0.049c0.005-0.019,0.011-0.04,0.02-0.063
	c0.418-1.338-0.374-2.206-1.306-2.926c2.306-2.798,4.641-5.938,6.973-9.471l5.412,4.159l0.949-4.083
	C69.723,35.472,70.45,38.952,70.45,42.604z"/>
</svg>
