<?xml version="1.0" encoding="utf-8"?>
<!-- Generator: Adobe Illustrator 16.0.0, SVG Export Plug-In . SVG Version: 6.00 Build 0)  -->
<!DOCTYPE svg PUBLIC "-//W3C//DTD SVG 1.1//EN" "http://www.w3.org/Graphics/SVG/1.1/DTD/svg11.dtd">
<svg version="1.1" id="Layer_1" xmlns="http://www.w3.org/2000/svg" xmlns:xlink="http://www.w3.org/1999/xlink" x="0px" y="0px"
	 width="97px" height="94px" viewBox="-5 -3.5 97 94" enable-background="new -5 -3.5 97 94" xml:space="preserve">
<path fill="#F26522" d="M72.815,17.793c-0.728-1.062-2.027-1.645-3.662-1.645h-6.001c0.012-0.485,0.044-0.952,0.044-1.45V13.5
	H23.803v1.199c0,0.498,0.033,0.964,0.047,1.45h-6.003c-1.633,0-2.934,0.583-3.662,1.645c-0.833,1.213-0.846,2.875-0.041,4.939
	c2.322,5.953,7.032,10.096,14.316,12.602c2.286,4.484,5.074,7.846,7.607,10.265c0.519,1.307,3.292,5.267,3.322,5.307
	c0.16,0.227,0.251,0.386,0.305,0.493c-0.101,0.081-0.2,0.163-0.251,0.215c-0.01,0.009-0.906,0.785-1.917,1.561
	c-1.336,1.024-1.311,2.064-1.296,2.686v0.891c-2.021,0.426-3.446,2.021-3.446,4.055v0.663h-2.388v5.882h-2.203v6.15h30.616v-6.15
	h-2.205v-5.882h-2.388v-0.663c0-2.034-1.425-3.629-3.447-4.055l0.002-0.891c0.015-0.62,0.039-1.659-1.295-2.685
	c-0.991-0.762-1.871-1.522-1.874-1.522l0,0c-0.094-0.089-0.194-0.173-0.295-0.254c0.054-0.107,0.146-0.267,0.306-0.491
	c0.029-0.042,2.803-4.002,3.321-5.309c2.531-2.419,5.32-5.781,7.607-10.265c7.285-2.506,11.992-6.648,14.315-12.602
	C73.662,20.668,73.647,19.006,72.815,17.793z M56.406,71.103H30.595v-1.357h25.812V71.103z M32.798,67.35v-3.485h21.403v3.485
	H32.798z M16.384,21.864c-0.488-1.247-0.563-2.213-0.215-2.719c0.358-0.523,1.205-0.602,1.678-0.602h6.104
	c0.379,5.283,1.516,9.805,3.065,13.639C21.709,29.884,18.188,26.488,16.384,21.864z M51.814,60.805v0.658H35.186v-0.658
	c0-1.031,0.893-1.779,2.122-1.779h12.385C50.922,59.025,51.814,59.773,51.814,60.805z M45.654,49.521
	c-1.136,1.597-1.095,2.747,0.132,3.734c0.052,0.041,0.105,0.082,0.197,0.166c0,0,0.952,0.826,2.026,1.65
	c0.37,0.285,0.368,0.301,0.359,0.732l-0.005,0.825h-9.729l-0.002-0.828c-0.012-0.429-0.012-0.444,0.358-0.729
	c1.076-0.824,2.028-1.65,2.07-1.69c0.048-0.044,0.101-0.085,0.152-0.126c1.228-0.987,1.269-2.138,0.132-3.736
	c-0.499-0.699-1.435-2.104-2.132-3.195h8.566C47.077,47.433,46.149,48.824,45.654,49.521z M49.231,43.927H37.747
	c-4.993-4.75-11.201-13.53-11.527-28.032h34.562C60.453,30.375,54.228,39.168,49.231,43.927z M70.617,21.864
	c-1.805,4.624-5.326,8.02-10.632,10.319c1.55-3.834,2.686-8.356,3.065-13.639h6.103c0.474,0,1.32,0.079,1.68,0.602
	C71.18,19.651,71.104,20.618,70.617,21.864z"/>
</svg>
